<svg width="19" height="19" viewBox="0 0 19 19" fill="none" xmlns="http://www.w3.org/2000/svg">
<path d="M16.6645 5.51958L13.4823 2.3374L6.75805 9.06165L9.94023 12.2438L16.6645 5.51958Z" fill="white" stroke="#6E7B97" stroke-width="1.5" stroke-linejoin="round"/>
<path d="M16.663 5.52157L13.4802 2.33876L14.1602 1.65876C15.0386 0.780415 16.4647 0.780415 17.343 1.65876C18.2214 2.5371 18.2214 3.96322 17.343 4.84156L16.663 5.52157Z" fill="white" stroke="#6E7B97" stroke-width="1.5" stroke-linejoin="round"/>
<path d="M9.94309 12.2463L6.76028 9.06348C6.27389 9.54987 6 10.2157 6 10.9052V13.0113H8.10613C8.79086 13.0066 9.45198 12.7327 9.94309 12.2463Z" fill="white" stroke="#6E7B97" stroke-width="1.5" stroke-linejoin="round"/>
<path d="M7.5 3H4.64726C2.63527 3 1 4.63099 1 6.64726V14.3527C1 16.3647 2.63099 18 4.64726 18H12.3527C14.3647 18 16 16.369 16 14.3527V11.5" stroke="#6E7B97" stroke-width="1.5" stroke-linecap="round" stroke-linejoin="round"/>
</svg>
