<svg width="20" height="15" viewBox="0 0 20 15" fill="none" xmlns="http://www.w3.org/2000/svg">
<path fill-rule="evenodd" clip-rule="evenodd" d="M19 7.74018C17.57 11.3611 14.0391 13.9229 9.9098 13.9229C5.78052 13.9229 2.24958 11.3611 0.819591 7.74018C2.24958 4.11923 5.78052 1.55745 9.9098 1.55745C14.0391 1.55745 17.57 4.11924 19 7.74018Z" fill="white"/>
<path d="M19 7.74018L19.6976 8.01567C19.7675 7.83866 19.7675 7.6417 19.6976 7.4647L19 7.74018ZM0.819591 7.74018L0.122018 7.46469C0.0521148 7.6417 0.0521148 7.83866 0.122018 8.01567L0.819591 7.74018ZM9.9098 14.6729C14.3573 14.6729 18.1583 11.9133 19.6976 8.01567L18.3024 7.4647C16.9817 10.809 13.7209 13.1729 9.9098 13.1729V14.6729ZM0.122018 8.01567C1.66126 11.9133 5.46234 14.6729 9.9098 14.6729V13.1729C6.0987 13.1729 2.8379 10.809 1.51716 7.46469L0.122018 8.01567ZM9.9098 0.807453C5.46234 0.807453 1.66126 3.56709 0.122018 7.46469L1.51716 8.01567C2.8379 4.67138 6.0987 2.30745 9.9098 2.30745V0.807453ZM19.6976 7.4647C18.1583 3.5671 14.3573 0.807453 9.9098 0.807453V2.30745C13.7209 2.30745 16.9817 4.67138 18.3024 8.01567L19.6976 7.4647Z" fill="#6E7B97"/>
<path d="M9.99254 11.6479C12.019 11.6479 13.6617 10.0052 13.6617 7.97875C13.6617 5.95232 12.019 4.30957 9.99254 4.30957C7.96611 4.30957 6.32336 5.95232 6.32336 7.97875C6.32336 10.0052 7.96611 11.6479 9.99254 11.6479Z" fill="white" stroke="#6E7B97" stroke-width="1.5" stroke-linejoin="round"/>
</svg>
