<svg width="135" height="27" viewBox="0 0 135 27" fill="none" xmlns="http://www.w3.org/2000/svg">
<path d="M9.772 9.77932L9.77159 9.77979C9.44332 10.1491 8.99193 10.3563 8.40826 10.3563H5.93716V6.19852H8.40826C8.95105 6.19852 9.40165 6.36401 9.772 6.7755C10.1453 7.19025 10.3128 7.68819 10.3128 8.27742C10.3128 8.90921 10.1459 9.36391 9.772 9.77932ZM1.26147 21.1022H5.57569C5.68709 21.1022 5.78952 21.0605 5.85884 20.9912C5.92523 20.9248 5.96388 20.8284 5.93716 20.7263V15.1756H8.40826C10.3504 15.1756 12.0324 14.5126 13.3597 13.1853C14.7293 11.8157 15.3936 10.1779 15.3936 8.32099C15.3936 6.4197 14.6851 4.78214 13.3597 3.4567C12.0324 2.12939 10.3504 1.46641 8.40826 1.46641H1.26147C1.16358 1.46641 1.07406 1.51434 1.011 1.5774C0.947938 1.64046 0.9 1.72998 0.9 1.82787V20.7407C0.9 20.8386 0.947938 20.9281 1.011 20.9912C1.07406 21.0542 1.16358 21.1022 1.26147 21.1022ZM5.21422 14.7705V20.3357H1.62294V2.18934H8.40826C10.2129 2.18934 11.6693 2.7896 12.8703 3.94737C14.0713 5.14874 14.6706 6.60476 14.6706 8.27742C14.6706 9.95036 14.0711 11.4066 12.8697 12.6081C11.6692 13.8085 10.1699 14.4091 8.40826 14.4091H5.57569C5.4778 14.4091 5.38828 14.457 5.32522 14.5201C5.26216 14.5831 5.21422 14.6726 5.21422 14.7705ZM5.57569 11.0793H8.40826C9.17219 11.0793 9.85453 10.8094 10.3124 10.3059C10.8085 9.76458 11.0794 9.08688 11.0794 8.32099C11.0794 7.55504 10.8084 6.87729 10.3122 6.33599C9.81302 5.79138 9.17571 5.51916 8.40826 5.51916H5.57569C5.4778 5.51916 5.38828 5.5671 5.32522 5.63016C5.26216 5.69322 5.21422 5.78274 5.21422 5.88063V10.7178C5.21422 10.8157 5.26216 10.9052 5.32522 10.9683C5.38828 11.0313 5.4778 11.0793 5.57569 11.0793Z" fill="black" stroke="black" stroke-width="0.2"/>
<path d="M18.94 9.17351L18.94 9.17352L18.9411 9.17231C20.1435 7.84108 21.5551 7.20069 23.2247 7.20069C24.859 7.20069 26.1348 7.71597 26.9827 8.73352L26.9824 8.73378L26.9888 8.74021C27.0435 8.79492 27.1122 8.83656 27.1833 8.85789C27.2534 8.8789 27.3359 8.88282 27.4093 8.8461C27.5168 8.79234 27.6389 8.67685 27.6389 8.49519V7.5929H30.9687V20.3356H27.6389V19.4333C27.6389 19.2516 27.5168 19.1361 27.4093 19.0824L27.403 19.0792L27.3962 19.0769C27.3137 19.0494 27.2368 19.0473 27.1641 19.0715C27.094 19.0948 27.0374 19.1396 26.9888 19.1882L26.9885 19.1879L26.9827 19.1949C26.1348 20.2125 24.859 20.7278 23.2247 20.7278C21.5548 20.7278 20.1427 20.0871 18.94 18.7985C17.7388 17.5116 17.1366 15.8808 17.1366 13.986C17.1366 12.0912 17.7388 10.4605 18.94 9.17351ZM18.4017 19.2838C19.7261 20.6964 21.3206 21.4507 23.2247 21.4507C24.7167 21.4507 25.9492 21.0994 26.8724 20.3117V20.697C26.8724 20.7949 26.9203 20.8844 26.9834 20.9475C27.0464 21.0106 27.136 21.0585 27.2339 21.0585H31.2866C31.3845 21.0585 31.474 21.0106 31.5371 20.9475C31.6001 20.8844 31.6481 20.7949 31.6481 20.697V7.18785C31.6481 7.08996 31.6001 7.00044 31.5371 6.93738C31.474 6.87432 31.3845 6.82638 31.2866 6.82638H27.2339C27.136 6.82638 27.0464 6.87432 26.9834 6.93738C26.9203 7.00044 26.8724 7.08996 26.8724 7.18785V7.5853C25.9191 6.82856 24.7255 6.43418 23.2247 6.43418C21.3645 6.43418 19.726 7.1882 18.4012 8.64524C17.0749 10.0602 16.4137 11.8721 16.4137 13.9424C16.4137 16.0564 17.0749 17.8685 18.4017 19.2838ZM21.4544 16.6278C22.1304 17.3038 23.0294 17.6158 24.0527 17.6158C25.0759 17.6158 25.9749 17.3038 26.6509 16.6278C27.3277 15.9511 27.6389 15.0516 27.6389 13.9424C27.6389 12.8333 27.3277 11.9338 26.6509 11.257C25.9753 10.5814 25.1202 10.269 24.0527 10.269C22.9851 10.269 22.13 10.5814 21.4544 11.257C20.7777 11.9338 20.4664 12.8333 20.4664 13.9424C20.4664 15.0516 20.7777 15.9511 21.4544 16.6278ZM21.9881 11.8342C22.5333 11.289 23.2038 11.0356 24.0527 11.0356C24.9015 11.0356 25.572 11.289 26.1173 11.8342C26.6616 12.3785 26.916 13.0485 26.916 13.986C26.916 14.9236 26.6616 15.5935 26.1173 16.1378C25.572 16.683 24.9015 16.9365 24.0527 16.9365C23.2038 16.9365 22.5333 16.683 21.9881 16.1378C21.4438 15.5935 21.1894 14.9236 21.1894 13.986C21.1894 13.0485 21.4438 12.3785 21.9881 11.8342Z" fill="black" stroke="black" stroke-width="0.2"/>
<path d="M40.966 12.3744L40.9661 12.3745L40.9696 12.3723C41.7266 11.9097 42.5691 11.7797 43.504 11.9047C43.6392 11.962 43.7638 11.8917 43.8207 11.8347C43.8818 11.7737 43.9372 11.6616 43.9372 11.5461V6.97045C43.9372 6.87256 43.8892 6.78304 43.8262 6.71998C43.7631 6.65692 43.6736 6.60898 43.5757 6.60898C42.5557 6.60898 41.6226 6.87517 40.8221 7.36426C40.468 7.57673 40.1402 7.84647 39.8844 8.1524V7.23192C39.8844 7.13403 39.8365 7.04451 39.7734 6.98145C39.7104 6.91839 39.6209 6.87045 39.523 6.87045H35.4702C35.3723 6.87045 35.2828 6.91839 35.2197 6.98145C35.1567 7.04451 35.1087 7.13403 35.1087 7.23192V20.7411C35.1087 20.839 35.1567 20.9285 35.2197 20.9916C35.2828 21.0546 35.3723 21.1026 35.4702 21.1026H39.523C39.6209 21.1026 39.7104 21.0546 39.7734 20.9916C39.8365 20.9285 39.8844 20.839 39.8844 20.7411V14.6402C39.8844 13.5284 40.2247 12.7862 40.966 12.3744ZM41.2319 7.97039L41.2319 7.9704L41.233 7.96971C41.7992 7.60572 42.4839 7.39448 43.2142 7.33872V11.1281C42.275 11.0256 41.4177 11.2511 40.6061 11.7209C39.6521 12.2662 39.1615 13.2636 39.1615 14.5966V20.336H35.8317V7.59339H39.1615V9.62871C39.1615 9.71506 39.1899 9.80232 39.2425 9.86986C39.2929 9.93475 39.3688 9.9845 39.463 9.98972C39.6533 10.0435 39.8245 9.912 39.8793 9.74749C40.1345 8.98188 40.5571 8.39214 41.2319 7.97039Z" fill="black" stroke="black" stroke-width="0.2"/>
<path d="M60.3555 20.5217L60.3515 20.5138L60.3463 20.5067L55.4659 13.942L60.204 7.43784C60.2704 7.39355 60.2985 7.32186 60.3055 7.25893C60.3132 7.18932 60.298 7.11558 60.2683 7.05609C60.2054 6.93036 60.0805 6.87008 59.961 6.87008H55.211C55.0936 6.87008 54.971 6.92821 54.9071 7.04934L51.5197 11.9652V1.82787C51.5197 1.72998 51.4717 1.64046 51.4087 1.5774C51.3456 1.51434 51.2561 1.46641 51.1582 1.46641H47.1055C47.0076 1.46641 46.9181 1.51434 46.855 1.5774C46.7919 1.64046 46.744 1.72998 46.744 1.82787V20.6971C46.744 20.795 46.7919 20.8846 46.855 20.9476C46.9181 21.0107 47.0076 21.0586 47.1055 21.0586H51.1582C51.2561 21.0586 51.3456 21.0107 51.4087 20.9476C51.4717 20.8846 51.5197 20.795 51.5197 20.6971V15.8645L55.1691 20.924C55.2332 21.0444 55.3554 21.1022 55.4724 21.1022H60.0481C60.1198 21.1022 60.1939 21.0687 60.2507 21.0309C60.3085 20.9923 60.3669 20.9368 60.399 20.8726C60.4343 20.8021 60.4325 20.7327 60.4175 20.6729C60.4039 20.6185 60.3779 20.5665 60.3575 20.5258L60.3555 20.5217ZM51.4032 13.3596L51.4098 13.353L51.4151 13.3454L55.3509 7.59301H59.1539L54.6551 13.7471C54.5365 13.8716 54.5366 14.0578 54.6556 14.1821L59.2813 20.3357H55.6107L51.4135 14.5376L51.4089 14.5311L51.4032 14.5255C51.3546 14.4769 51.298 14.4321 51.228 14.4088C51.1553 14.3845 51.0784 14.3867 50.9959 14.4142L50.9891 14.4164L50.9828 14.4196C50.8752 14.4734 50.7532 14.5889 50.7532 14.7705V20.3792H47.4234V2.18934H50.7532V13.1146C50.7532 13.1898 50.7655 13.2654 50.8065 13.331C50.8488 13.3986 50.9138 13.4436 50.9959 13.4709C51.0784 13.4984 51.1553 13.5006 51.228 13.4764C51.298 13.453 51.3546 13.4082 51.4032 13.3596Z" fill="black" stroke="black" stroke-width="0.2"/>
<path d="M79.8761 20.841H80.0229L79.9691 20.7043L72.5173 1.79147L72.4923 1.72812H72.4242H71.3348H71.2665L71.2417 1.79165L63.8334 20.7045L63.7799 20.841H63.9265H64.9724H65.0406L65.0655 20.7774L67.0017 15.8295H76.8009L78.7371 20.7774L78.7619 20.841H78.8302H79.8761ZM76.3743 14.7144H67.4714L71.9017 3.23769L76.3743 14.7144Z" fill="black" stroke="black" stroke-width="0.2"/>
<path d="M93.6755 8.29571L93.6755 8.29569L93.674 8.29412C92.6941 7.31424 91.4473 6.82676 89.8556 6.82676C88.6202 6.82676 87.5655 7.10266 86.6911 7.66519C85.9219 8.16 85.2978 8.87298 84.8134 9.80326V7.2318V7.1318H84.7134H83.7546H83.6546V7.2318V20.741V20.841H83.7546H84.7134H84.8134V20.741V13.5506C84.8134 11.7819 85.2876 10.4139 86.1817 9.43455C87.0765 8.45458 88.2691 7.9419 89.7248 7.9419C91.0546 7.9419 92.0719 8.32699 92.8334 9.13085L92.8334 9.13088L92.8353 9.13279C93.597 9.8945 93.9826 10.9563 93.9826 12.2433V20.741V20.841H94.0826H95.0413H95.1413V20.741V12.2433C95.1413 10.6088 94.6544 9.31909 93.6755 8.29571Z" fill="black" stroke="black" stroke-width="0.2"/>
<path d="M111.327 17.5489V20.0002C111.327 21.6337 110.812 22.9578 109.831 23.9386C108.853 24.917 107.487 25.391 105.718 25.391C104.334 25.391 103.219 25.1746 102.28 24.6624L102.28 24.6623L102.277 24.6607C101.338 24.1912 100.7 23.5102 100.318 22.7028L100.271 22.6046L100.177 22.659L99.3492 23.1384L99.2648 23.1872L99.3115 23.2728C99.8433 24.2477 100.642 25.0905 101.75 25.6669L101.751 25.6676C102.9 26.2418 104.223 26.5497 105.762 26.5497C107.831 26.5497 109.469 25.9326 110.71 24.7799L110.71 24.7799L110.712 24.7786C111.955 23.5801 112.573 21.9837 112.573 20.0002V7.2318V7.1318H112.473H111.514H111.414V7.2318V10.3818C110.849 9.33138 110.063 8.52027 108.995 7.88747C107.889 7.17974 106.607 6.82676 105.239 6.82676C103.251 6.82676 101.57 7.53456 100.2 8.90421C98.83 10.2743 98.1227 11.9995 98.1227 13.9864C98.1227 15.9733 98.83 17.6985 100.2 19.0686L100.2 19.0686L100.202 19.0708C101.614 20.3945 103.294 21.1024 105.239 21.1024C106.651 21.1024 107.889 20.7492 108.996 20.0416C109.986 19.4468 110.763 18.6045 111.327 17.5489ZM105.413 19.9873C103.739 19.9873 102.327 19.4308 101.126 18.2735C99.9686 17.0727 99.4121 15.6601 99.4121 13.9864C99.4121 12.2678 99.9694 10.8558 101.126 9.6993C102.283 8.54178 103.74 7.9419 105.413 7.9419C107.086 7.9419 108.498 8.54124 109.657 9.6993C110.814 10.8571 111.414 12.2697 111.414 13.9864C111.414 15.6599 110.814 17.116 109.657 18.2735C108.5 19.4302 107.088 19.9873 105.413 19.9873Z" fill="black" stroke="black" stroke-width="0.2"/>
<path d="M117.067 14.6093H129.511H129.573L129.601 14.554C129.631 14.4929 129.643 14.4228 129.649 14.3421C129.655 14.2623 129.655 14.1613 129.655 14.0339V14.03C129.655 12.0461 129.037 10.3659 127.756 8.95198C126.515 7.53457 124.875 6.82676 122.888 6.82676C120.859 6.82676 119.175 7.48908 117.89 8.90656C116.565 10.277 115.902 11.958 115.902 13.9864C115.902 16.1009 116.564 17.8271 117.892 19.1557C119.221 20.4841 120.947 21.146 123.018 21.146C124.296 21.146 125.445 20.8816 126.507 20.3067C127.571 19.7746 128.369 18.9762 128.901 18.0452L128.95 17.9588L128.864 17.909L128.036 17.4297L127.946 17.3775L127.898 17.4696C127.473 18.2772 126.835 18.8743 125.977 19.346C125.123 19.8156 124.138 20.0309 123.018 20.0309C121.384 20.0309 120.015 19.5586 118.903 18.5329C117.813 17.4837 117.175 16.1908 117.067 14.6093ZM118.815 9.52776L118.816 9.52782L118.818 9.52499C119.887 8.45672 121.254 7.9419 122.888 7.9419C124.431 7.9419 125.669 8.45494 126.695 9.48141L126.695 9.48143L126.697 9.48284C127.743 10.4876 128.342 11.8219 128.488 13.4942H117.067C117.171 11.8632 117.729 10.5311 118.815 9.52776Z" fill="black" stroke="black" stroke-width="0.2"/>
<path d="M134 20.8408H134.1V20.7408V1V0.9H134H133.041H132.941V1V20.7408V20.8408H133.041H134Z" fill="black" stroke="black" stroke-width="0.2"/>
</svg>
